<svg width="16" height="16" viewBox="0 0 16 16" fill="none" xmlns="http://www.w3.org/2000/svg">
<path fill-rule="evenodd" clip-rule="evenodd" d="M8 16C12.4183 16 16 12.4183 16 8C16 3.58172 12.4183 0 8 0C3.58172 0 0 3.58172 0 8C0 12.4183 3.58172 16 8 16ZM9.73509 14.5249C9.18144 14.6718 8.59986 14.75 8 14.75C7.09221 14.75 6.22627 14.5708 5.43563 14.2458C6.18589 11.4765 8.26057 9.49309 10.6373 8.60974C11.0495 10.6074 10.7424 12.7498 9.73509 14.5249ZM11.5117 13.7657C12.1563 12.01 12.2833 10.0761 11.8882 8.25257C12.842 8.06002 13.8149 8.04234 14.7465 8.21807C14.6719 10.5686 13.3956 12.6159 11.5117 13.7657ZM14.6588 6.88796C13.6274 6.73665 12.5654 6.78091 11.5283 7.00243C11.3274 6.43869 11.0737 5.89561 10.7716 5.37994C11.624 4.88763 12.4012 4.26584 13.0666 3.53986C13.8823 4.46569 14.4481 5.61685 14.6588 6.88796ZM12.1196 2.65248C11.5194 3.3096 10.8133 3.86842 10.0388 4.30398C9.516 3.63952 8.91119 3.04129 8.23688 2.52763L8.22058 2.51523L8.20368 2.50395C8.2036 2.5039 8.20215 2.50293 8.19908 2.50075C8.19548 2.49821 8.19068 2.49478 8.18453 2.49031C8.17208 2.48126 8.15665 2.46984 8.13815 2.45599C8.11715 2.44027 8.09607 2.42437 8.07343 2.40729L8.06883 2.40381C8.0505 2.38997 8.0311 2.37533 8.00985 2.35936C7.9639 2.32481 7.9135 2.28723 7.8672 2.25405C7.83485 2.23087 7.78835 2.19807 7.74085 2.16915L7.71073 2.14831C7.64895 2.10552 7.55609 2.0412 7.47178 1.98943C7.393 1.93421 7.28655 1.8713 7.2168 1.83046C7.14933 1.79094 7.07666 1.74947 7.03151 1.7237L6.99685 1.70389C6.98855 1.69904 6.98133 1.69502 6.97834 1.69335L6.97775 1.69302C6.97249 1.69008 6.96665 1.68686 6.96139 1.68397L6.9543 1.68006C6.94423 1.67452 6.93415 1.66897 6.92368 1.66314C6.91168 1.65646 6.90198 1.65096 6.8949 1.64684L6.89003 1.64343L6.8728 1.6329C6.81047 1.59482 6.74552 1.56003 6.71027 1.54115L6.69725 1.53418L6.68218 1.52606L6.6667 1.51875C6.63325 1.50296 6.58253 1.47879 6.52538 1.45154L6.52403 1.4509C6.50609 1.44235 6.48742 1.43345 6.46857 1.42447C6.9606 1.31034 7.47325 1.25 8 1.25C9.55097 1.25 10.9798 1.77309 12.1196 2.65248ZM4.69083 2.11544C3.68965 2.67967 2.84692 3.492 2.24608 4.46903C2.96081 4.83152 3.72849 5.08763 4.51933 5.22843L4.52103 5.22872L4.52273 5.22905C5.5 5.4084 6.50748 5.4036 7.49383 5.22577C7.9463 5.14408 8.3907 5.02262 8.82186 4.86486C8.41661 4.38552 7.96141 3.95064 7.46343 3.56978C7.4293 3.54613 7.3915 3.51805 7.3606 3.49493C7.3372 3.47743 7.3097 3.45668 7.28258 3.4362L7.28186 3.43566C7.26388 3.42209 7.24611 3.40869 7.22983 3.39645C7.18528 3.36295 7.1448 3.33283 7.11128 3.30883C7.0895 3.29322 7.07699 3.2848 7.07184 3.28133C7.06993 3.28004 7.06903 3.27943 7.06905 3.2794L7.0499 3.2686L7.02738 3.25333C6.99423 3.23083 6.9647 3.2104 6.93765 3.19168L6.9374 3.1915C6.87812 3.15048 6.83061 3.11761 6.7824 3.089L6.7508 3.07023L6.72235 3.04867C6.72318 3.04931 6.7227 3.04899 6.72063 3.0476L6.72035 3.04742C6.7153 3.04407 6.70199 3.03524 6.67745 3.02C6.6445 2.99958 6.6041 2.97545 6.56093 2.95015C6.49968 2.9143 6.4439 2.88248 6.39978 2.8573L6.39455 2.85432C6.37614 2.8438 6.35988 2.83452 6.34628 2.82668L6.34493 2.8259L6.33425 2.82L6.3292 2.81723C6.31918 2.81173 6.3058 2.80435 6.29218 2.79678C6.27623 2.7879 6.25688 2.777 6.23805 2.76598C6.22775 2.75995 6.20855 2.74865 6.18705 2.7347C6.16063 2.71895 6.13228 2.70373 6.09853 2.6856L6.09703 2.68478C6.05665 2.66568 6.0064 2.64173 5.95308 2.61628C5.85273 2.56843 5.74138 2.51535 5.6641 2.47941L5.65578 2.47554L5.62085 2.45808C5.49847 2.40134 5.35196 2.3458 5.18789 2.28359L5.18733 2.28337C5.1516 2.26983 5.11505 2.25597 5.07773 2.24172C4.97653 2.2054 4.87144 2.17233 4.76136 2.13768L4.7611 2.1376C4.7379 2.1303 4.71448 2.12293 4.69083 2.11544ZM1.67597 5.63485C2.49963 6.0505 3.38208 6.34379 4.29003 6.50562C5.42658 6.714 6.59105 6.70708 7.7243 6.50275C8.36935 6.38629 8.99909 6.2008 9.60291 5.95363C9.87168 6.40042 10.0977 6.87123 10.2776 7.36002C7.56617 8.3366 5.20007 10.5431 4.26428 13.6229C2.44729 12.4133 1.25 10.3465 1.25 8C1.25 7.16786 1.40058 6.37089 1.67597 5.63485Z" fill="white"/>
</svg>
