<svg width="9" height="16" viewBox="0 0 9 16" fill="none" xmlns="http://www.w3.org/2000/svg">
<path d="M5.65094 15.9304V9.40304L8.22087 9.40304L8.75398 6.5H5.65094V5.47327C5.65094 4.70622 5.80139 4.17518 6.14656 3.83591C6.49174 3.49663 7.03165 3.34911 7.81051 3.34911C8.00764 3.34911 8.18909 3.35107 8.35009 3.35499C8.58426 3.3607 8.77515 3.37054 8.90803 3.38453V0.752878C8.85493 0.738124 8.79223 0.723372 8.722 0.70885C8.56289 0.675949 8.36508 0.644233 8.15245 0.616382C7.70811 0.558172 7.19901 0.516823 6.84284 0.516823C5.4044 0.516823 4.31729 0.824561 3.55847 1.46198C2.64266 2.23126 2.20502 3.48075 2.20502 5.24907V6.49999H0.246048V9.40304H2.20502V15.7202C2.55668 15.9304 4.89583 16 5.65094 15.9304Z" fill="white"/>
</svg>
