<svg width="16" height="16" viewBox="0 0 16 16" fill="none" xmlns="http://www.w3.org/2000/svg">
<path d="M0.430577 11.545C1.78804 9.55873 4.40933 9.39324 5.70044 9.5727C5.34137 9.17258 4.43628 8.42787 5.07493 7.2003C2.16059 7.57248 1.22922 5.71052 1.09617 4.24833C0.830069 1.79318 2.90568 0.0279311 5.03484 0H9.74555C9.58589 0.151876 8.80072 0.689899 8.61444 0.689899L7.37689 0.703515C10.5307 3.77943 7.46986 6.35887 6.84435 6.89655C5.58019 8.48269 9.54581 9.26895 9.33292 11.9587C9.33292 14.3999 7.35028 16 4.24967 16C0.803122 15.9864 -0.846721 13.7659 0.430577 11.545ZM7.33715 14.5106C8.5747 13.5312 8.28198 12.083 7.32367 11.1173C6.75138 10.5381 6.05951 9.98643 4.5956 10.1655C2.87873 10.3726 1.62804 11.2276 1.69474 12.5655C2.05381 15.4072 6.00629 15.4759 7.33681 14.4966L7.33715 14.5106ZM6.49875 6.1658C7.92257 4.95184 6.60519 0.71783 4.6623 0.71783C3.42475 0.71783 2.7861 1.64165 2.73254 2.95232C2.63957 5.37954 4.78221 7.62799 6.49875 6.1658ZM12.7929 7.71039L10.6506 7.72435V6.60711H12.7667V4.41417H13.8446V6.60746L15.9869 6.62108L16 7.7247H13.8446V9.93161L12.7798 9.94558L12.7929 7.71039Z" fill="white"/>
</svg>
