<svg width="15" height="15" viewBox="0 0 15 15" fill="none" xmlns="http://www.w3.org/2000/svg">
<path d="M11.497 4.38883C11.0003 4.3898 10.5964 3.98763 10.5955 3.49093C10.5945 2.99423 10.9967 2.59036 11.4936 2.58939C11.9905 2.58841 12.3944 2.99082 12.3954 3.48752C12.3961 3.98422 11.9939 4.38785 11.497 4.38883Z" fill="white"/>
<path fill-rule="evenodd" clip-rule="evenodd" d="M7.50717 11.3506C5.38068 11.3548 3.65319 9.6343 3.64906 7.50729C3.64493 5.38077 5.36585 3.65301 7.49235 3.64888C9.61933 3.64475 11.3471 5.36619 11.3512 7.49247C11.3553 9.61948 9.63391 11.3465 7.50717 11.3506ZM7.49502 5.00022C6.11478 5.00265 4.99746 6.12411 4.99989 7.50462C5.00256 8.88536 6.12426 10.0024 7.5045 9.99978C8.88523 9.9971 10.0026 8.87589 9.99987 7.49514C9.9972 6.11439 8.87552 4.99755 7.49502 5.00022Z" fill="white"/>
<path fill-rule="evenodd" clip-rule="evenodd" d="M2.5745 0.404049C3.05079 0.217422 3.59583 0.0896014 4.39385 0.0519364C5.19382 0.0135454 5.4492 0.00479439 7.48555 0.000907888C9.52238 -0.00297861 9.77777 0.00479289 10.5777 0.0402709C11.376 0.0747769 11.9213 0.200655 12.3985 0.38534C12.8923 0.575609 13.3112 0.831738 13.7287 1.24752C14.1462 1.66378 14.4033 2.08126 14.596 2.57432C14.7824 3.05109 14.9102 3.59566 14.9481 4.39417C14.986 5.19389 14.9952 5.44904 14.9991 7.48566C15.003 9.52203 14.9947 9.77767 14.9598 10.5781C14.925 11.3759 14.7994 11.9214 14.6147 12.3985C14.4239 12.8922 14.1683 13.3112 13.7525 13.7287C13.3367 14.1464 12.9188 14.4032 12.4257 14.5962C11.949 14.7823 11.4044 14.9102 10.6064 14.9483C9.80645 14.9862 9.55105 14.9952 7.51398 14.9991C5.47787 15.003 5.22249 14.9952 4.42253 14.96C3.62426 14.925 3.07873 14.7993 2.60172 14.6149C2.10795 14.4239 1.68901 14.1685 1.27153 13.7525C0.853819 13.3365 0.596491 12.9187 0.404036 12.4257C0.217411 11.9492 0.0900669 11.4043 0.0519204 10.6066C0.0137724 9.80634 0.00478442 9.55071 0.000899415 7.51434C-0.00300059 5.47772 0.00502292 5.22257 0.0400104 4.4226C0.0752499 3.62409 0.200398 3.07879 0.385081 2.60129C0.57583 2.10774 0.831466 1.68905 1.24773 1.27133C1.6635 0.853853 2.08146 0.596261 2.5745 0.404049ZM3.08846 13.3549C3.35309 13.4567 3.75014 13.5782 4.48134 13.6101C5.27254 13.6443 5.50946 13.6519 7.51155 13.648C9.51436 13.6443 9.75129 13.6358 10.5422 13.5987C11.2727 13.5639 11.6698 13.4409 11.9337 13.3379C12.2838 13.2011 12.5332 13.0376 12.7951 12.7754C13.0571 12.5122 13.2191 12.2621 13.3547 11.912C13.4568 11.6471 13.5781 11.2498 13.6099 10.5186C13.6446 9.72785 13.6519 9.49068 13.648 7.48809C13.6444 5.48598 13.6359 5.24881 13.5982 4.45784C13.5637 3.72712 13.441 3.33005 13.3377 3.06639C13.2009 2.71574 13.0379 2.46691 12.7749 2.20471C12.512 1.9425 12.262 1.7809 11.9113 1.64531C11.6472 1.54301 11.2496 1.42199 10.5189 1.39016C9.72771 1.35541 9.49053 1.34836 7.48798 1.35225C5.48589 1.35614 5.24897 1.36415 4.45801 1.40158C3.72706 1.43632 3.33048 1.55904 3.06609 1.66232C2.71617 1.79913 2.46685 1.9617 2.20466 2.22488C1.94294 2.48804 1.78086 2.73761 1.64527 3.08851C1.54371 3.3529 1.42147 3.75045 1.39013 4.48117C1.35561 5.27238 1.34833 5.50956 1.35222 7.51166C1.35587 9.51425 1.36436 9.75143 1.40155 10.5419C1.43581 11.2731 1.55949 11.6697 1.66229 11.9343C1.79909 12.284 1.96215 12.5333 2.22483 12.7955C2.488 13.0568 2.73805 13.2193 3.08846 13.3549Z" fill="white"/>
</svg>
