<svg width="12" height="11" viewBox="0 0 12 11" fill="none" xmlns="http://www.w3.org/2000/svg">
<path d="M10.7715 2.73842C10.7788 2.85776 10.7788 2.97711 10.7788 3.09755C10.7788 6.76747 8.30225 11 3.7738 11V10.9978C2.43608 11 1.12614 10.5677 0 9.75268C0.194516 9.77908 0.390006 9.79228 0.585984 9.79283C1.69458 9.79393 2.77148 9.3743 3.64363 8.6016C2.59013 8.57905 1.6663 7.80415 1.34357 6.67287C1.71261 6.75317 2.09287 6.73667 2.45509 6.62503C1.30652 6.36324 0.480195 5.22481 0.480195 3.9027V3.8675C0.822425 4.08254 1.20561 4.20188 1.59756 4.21508C0.515783 3.39948 0.182328 1.77598 0.835588 0.506662C2.08556 2.2418 3.9298 3.29664 5.90957 3.40828C5.71115 2.44364 5.98221 1.4328 6.62182 0.754697C7.61341 -0.296837 9.17294 -0.24294 10.1051 0.875139C10.6564 0.752497 11.1849 0.524261 11.6685 0.200882C11.4847 0.843791 11.1001 1.38991 10.5862 1.73693C11.0742 1.67204 11.551 1.52465 12 1.29971C11.6695 1.85848 11.2531 2.3452 10.7715 2.73842Z" fill="white"/>
</svg>
