<svg width="16" height="11" viewBox="0 0 16 11" fill="none" xmlns="http://www.w3.org/2000/svg">
<path fill-rule="evenodd" clip-rule="evenodd" d="M15.1485 0.838319C15.3967 1.08212 15.575 1.38526 15.6655 1.71742C16 2.94339 16 5.5 16 5.5C16 5.5 16 8.05661 15.6655 9.28258C15.575 9.61474 15.3967 9.91788 15.1485 10.1617C14.9002 10.4055 14.5907 10.5814 14.2509 10.6718C13 11 8 11 8 11C8 11 3 11 1.74909 10.6718C1.40929 10.5814 1.09977 10.4055 0.851525 10.1617C0.603277 9.91788 0.425004 9.61474 0.334545 9.28258C3.97364e-08 8.05661 0 5.5 0 5.5C0 5.5 3.97364e-08 2.94339 0.334545 1.71742C0.425004 1.38526 0.603277 1.08212 0.851525 0.838319C1.09977 0.59452 1.40929 0.418622 1.74909 0.328226C3 0 8 0 8 0C8 0 13 0 14.2509 0.328226C14.5907 0.418622 14.9002 0.59452 15.1485 0.838319ZM10.5455 5.50002L6.36365 3.17849V7.82155L10.5455 5.50002Z" fill="white"/>
</svg>
