<svg xmlns="http://www.w3.org/2000/svg" width="100" height="101" fill="none" viewBox="0 0 100 101"><path fill="#fff" d="m38 29.5.783-1.28A1.5 1.5 0 0 0 36.5 29.5zM38 71h-1.5a1.5 1.5 0 0 0 2.297 1.27zm33.5-21 .797 1.27a1.5 1.5 0 0 0-.014-2.55zm25.5.5c0 25.957-21.043 47-47 47v3c27.614 0 50-22.386 50-50zm-47 47c-25.957 0-47-21.043-47-47H0c0 27.614 22.386 50 50 50zm-47-47c0-25.957 21.043-47 47-47v-3C22.386.5 0 22.886 0 50.5zm47-47c25.957 0 47 21.043 47 47h3c0-27.614-22.386-50-50-50zm-13.5 26V71h3V29.5zm2.297 42.77 33.5-21-1.594-2.54-33.5 21zm33.486-23.55-33.5-20.5-1.566 2.56 33.5 20.5z"/></svg>